<svg xmlns="http://www.w3.org/2000/svg" width="64" height="64" viewBox="0 0 64 64">
  <defs>
    <linearGradient id="bg" x1="0" y1="0" x2="64" y2="64" gradientUnits="userSpaceOnUse">
      <stop offset="0" stop-color="#1a5e1a"/>
      <stop offset="1" stop-color="#0d3d0d"/>
    </linearGradient>
  </defs>
  <circle cx="32" cy="32" r="32" fill="url(#bg)"/>
  <circle cx="32" cy="32" r="24" fill="white" stroke="#222" stroke-width="1.5"/>
  <!-- Pentagon patches -->
  <polygon points="32,14 37,20 35,27 29,27 27,20" fill="#222"/>
  <polygon points="18,22 23,18 28,23 25,28 19,28" fill="#222"/>
  <polygon points="46,22 41,18 36,23 39,28 45,28" fill="#222"/>
  <polygon points="22,40 18,34 23,29 29,31 27,38" fill="#222"/>
  <polygon points="42,40 46,34 41,29 35,31 37,38" fill="#222"/>
  <polygon points="32,50 27,44 29,38 35,38 37,44" fill="#222"/>
  <!-- Star accent -->
  <circle cx="32" cy="32" r="3" fill="#1a5e1a" opacity="0.6"/>
</svg>
